<?xml version="1.0" encoding="utf-8"?>
<!-- Generator: Adobe Illustrator 17.0.0, SVG Export Plug-In . SVG Version: 6.00 Build 0)  -->
<!DOCTYPE svg PUBLIC "-//W3C//DTD SVG 1.1//EN" "http://www.w3.org/Graphics/SVG/1.1/DTD/svg11.dtd">
<svg version="1.1" id="Layer_1" xmlns="http://www.w3.org/2000/svg" xmlns:xlink="http://www.w3.org/1999/xlink" x="0px" y="0px"
	 width="50px" height="50px" viewBox="0 0 50 50" enable-background="new 0 0 50 50" xml:space="preserve">
<path d="M45.004,9.775c-9.351-2.772-18.7-5.545-28.053-8.309c-0.531-0.157-1.087-0.232-1.294-0.275
	C13.114,1.178,11.52,2.46,10.849,4.82C7.97,14.93,5.099,25.042,2.23,35.154c-0.857,3.022,0.389,5.347,3.376,6.232
	c9.427,2.794,18.857,5.575,28.289,8.35c2.903,0.854,5.201-0.401,6.026-3.295c2.881-10.109,5.752-20.222,8.618-30.335
	C49.435,12.947,48.178,10.716,45.004,9.775z M41.616,29.049c-1.748,7.805-8.752,13.236-16.573,12.852
	c-7.992-0.393-14.598-6.583-15.538-14.563c-0.861-7.306,2.911-14.002,9.605-17.056c0.249-0.114,0.489-0.247,0.828-0.42
	c-0.339-1.192-0.642-2.258-1.022-3.596c4.397,1.073,8.594,2.097,13.051,3.185c-3.107,3.309-6.067,6.461-9.224,9.824
	c-0.645-2.164-1.228-4.121-1.855-6.223c-0.967,0.526-1.823,0.991-2.755,1.498c0.265,0.895,0.457,1.753,0.775,2.561
	c0.377,0.955,0.389,1.804-0.507,2.427c-0.439,0.305-0.989,0.453-1.492,0.663c-0.066,0.028-0.158-0.006-0.237-0.011
	c-3.107-0.199-3.107-0.199-3.932,3.084c0.849,0.474,1.743,0.973,2.636,1.473c1.484,0.831,1.73,2.878,0.48,3.99
	c-0.684,0.608-1.365,1.219-2.005,1.791c0.014,0.174-0.003,0.263,0.029,0.329c1.378,2.819,1.379,2.818,4.35,1.937
	c1.901-0.564,2.945,0.274,2.813,2.26c-0.008,0.12-0.018,0.239-0.027,0.359c-0.199,2.663-0.202,2.68,2.473,3.192
	c0.28,0.054,0.754-0.153,0.919-0.39c0.453-0.653,0.795-1.384,1.172-2.089c0.848-1.584,2.07-1.737,3.224-0.397
	c0.209,0.242,0.414,0.488,0.624,0.729c1.379,1.584,1.347,1.515,3.244,0.604c0.987-0.474,1.163-1.014,0.753-1.942
	c-0.192-0.434-0.265-0.92-0.399-1.38c-0.546-1.876,0.484-3.167,2.413-3.021c0.04,0.003,0.08,0.007,0.12,0.01
	c3.117,0.195,2.225,0.662,3.218-2.274c0.197-0.583,0.132-0.973-0.487-1.244c-0.583-0.256-1.125-0.606-1.685-0.915
	c-1.532-0.847-1.685-2.147-0.386-3.297c0.745-0.659,1.496-1.312,2.198-1.927c-0.012-0.18,0.006-0.269-0.025-0.334
	c-1.391-2.821-1.392-2.821-4.429-1.945c-1.313,0.378-2.713-0.729-2.643-2.093c0.027-0.519,0.038-1.04,0.09-1.556
	c0.113-1.126,0.383-2.321-1.611-2.312c0.02-0.124,0.04-0.248,0.06-0.372c0.671-0.602,1.294-1.278,2.039-1.769
	c0.277-0.183,0.897-0.049,1.262,0.135C39.647,14.097,43.229,21.845,41.616,29.049z"/>
</svg>
